<svg xmlns="http://www.w3.org/2000/svg" width="32" height="25.846" viewBox="0 0 32 25.846">
  <g id="surface1" transform="translate(0 -3.692)">
    <path id="Path_52" data-name="Path 52" d="M12.923,3.692a1.87,1.87,0,0,0-1.731.846L9.615,7.385H7.385A1.233,1.233,0,0,0,6.154,6.154H3.692A1.233,1.233,0,0,0,2.462,7.385v.231A3.673,3.673,0,0,0,0,11.077V23.538a6,6,0,0,0,6,6H26a6,6,0,0,0,6-6V13.385a6,6,0,0,0-6-6H24.846L23.269,4.538a1.914,1.914,0,0,0-1.731-.846ZM4.923,8A1.846,1.846,0,1,1,3.077,9.846,1.847,1.847,0,0,1,4.923,8Zm12.308.538a8.692,8.692,0,1,1-8.692,8.692A8.7,8.7,0,0,1,17.231,8.538Zm0,2.769a5.923,5.923,0,1,0,5.923,5.923A5.926,5.926,0,0,0,17.231,11.308Z" fill="#f8f9fa"/>
  </g>
</svg>
