<svg xmlns="http://www.w3.org/2000/svg" width="32" height="32" viewBox="0 0 32 32">
  <path id="icons8-login_rounded_right" d="M20,4A16,16,0,0,0,5.76,12.727,1.333,1.333,0,1,0,8.133,13.94a13.333,13.333,0,1,1,0,12.12A1.333,1.333,0,1,0,5.76,27.273,16,16,0,1,0,20,4Zm-1.346,9.32a1.333,1.333,0,0,0-.93,2.289l3.057,3.057H5.333a1.333,1.333,0,1,0,0,2.667H20.781l-3.057,3.057a1.333,1.333,0,1,0,1.886,1.886l5.216-5.216a1.333,1.333,0,0,0,0-2.122l-5.214-5.214a1.333,1.333,0,0,0-.956-.4Z" transform="translate(-4 -4)" fill="#457afb"/>
</svg>
