<svg xmlns="http://www.w3.org/2000/svg" width="31.135" height="32" viewBox="0 0 31.135 32">
  <g id="icons8-privacy" transform="translate(-1.73 -0.865)">
    <path id="Path_61" data-name="Path 61" d="M25.946,15.32V10.378a8.649,8.649,0,1,0-17.3,0V15.32" fill="none" stroke="#4788c7" stroke-miterlimit="10" stroke-width="1.73"/>
    <g id="Group_96" data-name="Group 96">
      <path id="Path_62" data-name="Path 62" d="M2.162,32.432V19.027a5.628,5.628,0,0,1,5.622-5.622H26.811a5.628,5.628,0,0,1,5.622,5.622V32.432Z" fill="#b6dcfe"/>
      <path id="Path_63" data-name="Path 63" d="M26.811,13.838A5.2,5.2,0,0,1,32,19.027V32H2.595V19.027a5.2,5.2,0,0,1,5.189-5.189H26.811m0-.865H7.784A6.054,6.054,0,0,0,1.73,19.027V32.865H32.865V19.027a6.054,6.054,0,0,0-6.054-6.054Z" fill="#4788c7"/>
    </g>
    <g id="Group_98" data-name="Group 98">
      <circle id="Ellipse_23" data-name="Ellipse 23" cx="6.486" cy="6.486" r="6.486" transform="translate(10.811 16.865)" fill="#dff0fe"/>
      <g id="Group_97" data-name="Group 97">
        <path id="Path_64" data-name="Path 64" d="M17.3,17.3a6.054,6.054,0,1,1-6.054,6.054A6.061,6.061,0,0,1,17.3,17.3m0-.865a6.919,6.919,0,1,0,6.919,6.919A6.919,6.919,0,0,0,17.3,16.432Z" fill="#4788c7"/>
      </g>
    </g>
    <circle id="Ellipse_24" data-name="Ellipse 24" cx="2.595" cy="2.595" r="2.595" transform="translate(14.703 20.757)" fill="#4788c7"/>
    <circle id="Ellipse_25" data-name="Ellipse 25" cx="1.297" cy="1.297" r="1.297" transform="translate(18.162 19.892)" fill="#fff"/>
  </g>
</svg>
