<svg xmlns="http://www.w3.org/2000/svg" width="32" height="32" viewBox="0 0 32 32">
  <path id="icons8-squared_menu_filled" d="M5.333,3.81A1.525,1.525,0,0,0,3.81,5.333v6.1a1.525,1.525,0,0,0,1.524,1.524h6.1a1.525,1.525,0,0,0,1.524-1.524v-6.1A1.525,1.525,0,0,0,11.429,3.81Zm11.429,0a1.525,1.525,0,0,0-1.524,1.524v6.1a1.525,1.525,0,0,0,1.524,1.524h6.1a1.525,1.525,0,0,0,1.524-1.524v-6.1A1.525,1.525,0,0,0,22.857,3.81Zm11.429,0a1.525,1.525,0,0,0-1.524,1.524v6.1a1.525,1.525,0,0,0,1.524,1.524h6.1a1.525,1.525,0,0,0,1.524-1.524v-6.1A1.525,1.525,0,0,0,34.286,3.81ZM5.333,15.238A1.525,1.525,0,0,0,3.81,16.762v6.1a1.525,1.525,0,0,0,1.524,1.524h6.1a1.525,1.525,0,0,0,1.524-1.524v-6.1a1.525,1.525,0,0,0-1.524-1.524Zm11.429,0a1.525,1.525,0,0,0-1.524,1.524v6.1a1.525,1.525,0,0,0,1.524,1.524h6.1a1.525,1.525,0,0,0,1.524-1.524v-6.1a1.525,1.525,0,0,0-1.524-1.524Zm11.429,0a1.525,1.525,0,0,0-1.524,1.524v6.1a1.525,1.525,0,0,0,1.524,1.524h6.1a1.525,1.525,0,0,0,1.524-1.524v-6.1a1.525,1.525,0,0,0-1.524-1.524ZM5.333,26.667A1.525,1.525,0,0,0,3.81,28.19v6.1A1.525,1.525,0,0,0,5.333,35.81h6.1a1.525,1.525,0,0,0,1.524-1.524v-6.1a1.525,1.525,0,0,0-1.524-1.524Zm11.429,0a1.525,1.525,0,0,0-1.524,1.524v6.1a1.525,1.525,0,0,0,1.524,1.524h6.1a1.525,1.525,0,0,0,1.524-1.524v-6.1a1.525,1.525,0,0,0-1.524-1.524Zm11.429,0a1.525,1.525,0,0,0-1.524,1.524v6.1A1.525,1.525,0,0,0,28.19,35.81h6.1a1.525,1.525,0,0,0,1.524-1.524v-6.1a1.525,1.525,0,0,0-1.524-1.524Z" transform="translate(-3.81 -3.81)" fill="#393d42"/>
</svg>
