<svg xmlns="http://www.w3.org/2000/svg" width="31.98" height="32" viewBox="0 0 31.98 32">
  <path id="Path_25" data-name="Path 25" d="M20.072,3.042a.8.8,0,0,0-.144.024.762.762,0,0,0-.6.539.77.77,0,0,0,.216.778l.551.551c-3.12,3.506-4.305,8.476-4.6,9.94l-5.365,2.4-.1-.1a.762.762,0,1,0-1.078,1.078L20.072,29.365a.767.767,0,1,0,1.078-1.078l-.263-.263,2.4-5.293a21.933,21.933,0,0,0,10.108-4.5l.551.551a.771.771,0,1,0,1.1-1.078L20.623,3.281A.766.766,0,0,0,20.072,3.042Zm-6.659,20.79L3.281,33.94l1.1,1.1L14.491,24.91Z" transform="translate(-3.281 -3.042)" fill="#f8f9fa"/>
</svg>
